<?xml version="1.0" standalone="no"?>
<!DOCTYPE svg PUBLIC "-//W3C//DTD SVG 20010904//EN"
 "http://www.w3.org/TR/2001/REC-SVG-20010904/DTD/svg10.dtd">
<svg version="1.0" xmlns="http://www.w3.org/2000/svg"
 width="910.000000pt" height="512.000000pt" viewBox="0 0 910.000000 512.000000"
 preserveAspectRatio="xMidYMid meet">
<metadata>
Created by potrace 1.16, written by Peter Selinger 2001-2019
</metadata>
<g transform="translate(0.000000,512.000000) scale(0.100000,-0.100000)"
fill="#000000" stroke="none">
<path d="M2725 5106 c-41 -18 -83 -69 -90 -109 -4 -18 -5 -118 -3 -224 3 -210
5 -218 72 -267 l27 -21 1819 0 1819 0 27 21 c68 51 69 53 69 294 0 241 -1 243
-69 294 l-27 21 -1807 2 c-1487 2 -1812 0 -1837 -11z"/>
<path d="M2640 4148 c0 -7 -9 -112 -19 -233 -10 -121 -17 -222 -14 -225 12
-13 242 -3 302 13 190 52 335 180 434 385 l35 72 -369 0 c-288 0 -369 -3 -369
-12z"/>
<path d="M3700 4118 c-25 -84 -94 -225 -156 -319 -78 -119 -210 -246 -319
-308 -161 -93 -378 -141 -564 -127 l-86 6 -63 -762 c-35 -420 -95 -1143 -134
-1607 -38 -464 -67 -859 -63 -877 8 -46 59 -101 103 -114 25 -8 305 -10 873
-8 l836 3 37 29 c21 16 44 43 51 60 7 17 24 128 38 246 14 118 85 724 157
1345 73 622 135 1137 138 1145 4 9 7 4 9 -15 2 -16 47 -394 99 -840 52 -445
122 -1044 155 -1330 39 -326 67 -532 77 -553 8 -18 31 -45 50 -60 l35 -27 836
-3 c568 -2 848 0 873 8 44 13 95 68 103 114 4 18 -25 413 -63 877 -39 464 -99
1186 -134 1604 l-63 760 -150 0 c-119 1 -168 5 -237 23 -178 44 -298 108 -425
227 -129 120 -241 295 -304 478 l-24 67 -836 0 -836 0 -13 -42z"/>
<path d="M5757 4088 c99 -205 245 -334 434 -385 60 -16 290 -26 302 -13 3 3
-3 104 -14 225 -10 121 -18 226 -19 233 0 9 -81 12 -369 12 l-369 0 35 -72z"/>
</g>
</svg>
